# xmcd CD database file
#
# Track frame offsets:
#	150
#	10879
#	22958
#	33836
#	45314
#	57317
#	67370
#	81398
#	95726
#	107129
#	120407
#	135335
#	151089
#	166393
#	190824
#	208159
#	232571
#	257965
#	280273
#	301056
#	321086
#
# Disc length: 4619 seconds
#
# Revision: 0
# Processed by: cddbd v1.5.2PL0 Copyright (c) Steve Scherf et al.
# Submitted via: CDex 1.70beta2
#
DISCID=14120915
DTITLE=The Modern Jazz Quartet - 8 Classics Albums - CD1
DYEAR=1953
DGENRE=Jazz
TTITLE0=Mambo Bounce
TTITLE1=Time On My Hands
TTITLE2=This Love For Mine
TTITLE3=Shadrock
TTITLE4=On a Slow Boat to China
TTITLE5=Scoops
TTITLE6=With a Song in My Heart
TTITLE7=Newk's Fadeaway
TTITLE8=I Knew
TTITLE9=The Stopper
TTITLE10=In a Sentimental Mood
TTITLE11=No Moe
TTITLE12=Almost Like Beeing in Love
TTITLE13=Confirmation
TTITLE14=You Are Too Beautiful
TTITLE15=Lady Be Good
TTITLE16=The Nearness of You
TTITLE17=Poutin
TTITLE18=Danny Boy
TTITLE19=Billies Bounce
TTITLE20=Cotton Tail
EXTD=YEAR: 1953
EXTT0=
EXTT1=
EXTT2=
EXTT3=
EXTT4=
EXTT5=
EXTT6=
EXTT7=
EXTT8=
EXTT9=
EXTT10=
EXTT11=
EXTT12=
EXTT13=
EXTT14=
EXTT15=
EXTT16=
EXTT17=
EXTT18=
EXTT19=
EXTT20=
PLAYORDER=
